# xmcd
# 
# Track frame offsets:
#     183
#     26705
#     43345
#     62723
#     80910
#     98010
#     114180
#     130973
#     145523
#     163563
#     179743
#     193653
#     209395
#     229480
#     249453
#     266085
# 
# Disc length: 3776
# 
# Revision: 7
# Processed by: cddbd v1.5.2PL0 Copyright (c) Steve Scherf et al.
# Submitted via: fre:ac v1.0.31
# 
DISCID=ed0ebe10
DTITLE=Various Artist - The Greatest Hits Of 92 - Disk 1
DYEAR=0
DGENRE=Blues
TTITLE0=Queen - Bohemian Rhapsody
TTITLE1=Wet Wet Wet - Goodnight Girl
TTITLE2=Simply Red - For Your Babies
TTITLE3=Right Said Fred - Don't Talk Just Kiss
TTITLE4=Geprge Michael - Too Funky
TTITLE5=KWS - Please Don't Go
TTITLE6=Snap - Rhythm Is A Dancer
TTITLE7=Kriss Kross - Jump
TTITLE8=Undercover - Baker Street
TTITLE9=The Cure - Friday I'm In Love
TTITLE10=Kylie - Give Me Just A Little More Time
TTITLE11=Kym Sims - Too Blind To See It
TTITLE12=Marc Almond - The Days Of Pearly Spencer
TTITLE13=Curtis Stigers - I Wonder Why
TTITLE14=Manic Street Preachers - Theme From M.A.S.H
TTITLE15=Shakespears Sister - Stay
EXTD=ID3G:   0
EXTT0=
EXTT1=
EXTT2=
EXTT3=
EXTT4=
EXTT5=
EXTT6=
EXTT7=
EXTT8=
EXTT9=
EXTT10=
EXTT11=
EXTT12=
EXTT13=
EXTT14=
EXTT15=
PLAYORDER=
